<svg width="454" height="81" viewBox="0 0 454 81" fill="none" xmlns="http://www.w3.org/2000/svg">
<g filter="url(#filter0_d_337_2)">
<path d="M0 28L33.5 0H436V62H0V28Z" fill="black"/>
<path d="M178.924 38V27.542H175.441V25.4H184.756V27.542H181.273V38H178.924ZM186.788 38V25.4H191.666C192.56 25.4 193.337 25.553 193.997 25.859C194.657 26.159 195.167 26.591 195.527 27.155C195.887 27.719 196.067 28.391 196.067 29.171C196.067 29.795 195.938 30.344 195.68 30.818C195.422 31.292 195.065 31.685 194.609 31.997C194.159 32.309 193.637 32.528 193.043 32.654L196.706 38H193.898L190.64 33.068H189.128V38H186.788ZM189.128 31.151H191.324C192.074 31.151 192.659 30.995 193.079 30.683C193.499 30.365 193.709 29.903 193.709 29.297C193.709 28.667 193.517 28.187 193.133 27.857C192.749 27.527 192.185 27.362 191.441 27.362H189.128V31.151ZM201.429 38V32.618L196.992 25.4H199.647L202.653 30.368L205.632 25.4H208.215L203.778 32.636V38H201.429ZM214.175 38V25.4H216.443L222.41 34.076V25.4H224.687V38H222.419L216.452 29.216V38H214.175ZM233.745 38.27C232.791 38.27 231.906 38.105 231.09 37.775C230.28 37.439 229.575 36.974 228.975 36.38C228.375 35.786 227.91 35.09 227.58 34.292C227.25 33.494 227.085 32.63 227.085 31.7C227.085 30.764 227.25 29.897 227.58 29.099C227.91 28.301 228.375 27.605 228.975 27.011C229.575 26.417 230.28 25.955 231.09 25.625C231.906 25.295 232.791 25.13 233.745 25.13C234.693 25.13 235.572 25.298 236.382 25.634C237.192 25.97 237.897 26.438 238.497 27.038C239.097 27.638 239.565 28.337 239.901 29.135C240.237 29.927 240.405 30.782 240.405 31.7C240.405 32.63 240.237 33.494 239.901 34.292C239.565 35.09 239.097 35.786 238.497 36.38C237.897 36.974 237.192 37.439 236.382 37.775C235.572 38.105 234.693 38.27 233.745 38.27ZM233.745 36.065C234.339 36.065 234.891 35.963 235.401 35.759C235.917 35.549 236.364 35.255 236.742 34.877C237.126 34.493 237.423 34.034 237.633 33.5C237.849 32.96 237.957 32.36 237.957 31.7C237.957 30.818 237.771 30.05 237.399 29.396C237.027 28.742 236.523 28.235 235.887 27.875C235.251 27.515 234.537 27.335 233.745 27.335C233.145 27.335 232.59 27.437 232.08 27.641C231.57 27.845 231.123 28.139 230.739 28.523C230.361 28.907 230.064 29.366 229.848 29.9C229.638 30.434 229.533 31.034 229.533 31.7C229.533 32.582 229.716 33.35 230.082 34.004C230.454 34.658 230.958 35.165 231.594 35.525C232.23 35.885 232.947 36.065 233.745 36.065ZM245.112 38L241.305 25.4H243.744L246.3 34.652L249 25.4H251.394L254.085 34.643L256.641 25.4H259.017L255.219 38H252.816L250.17 28.892L247.497 38H245.112Z" fill="white"/>
</g>
<defs>
<filter id="filter0_d_337_2" x="0" y="0" width="454" height="81" filterUnits="userSpaceOnUse" color-interpolation-filters="sRGB">
<feFlood flood-opacity="0" result="BackgroundImageFix"/>
<feColorMatrix in="SourceAlpha" type="matrix" values="0 0 0 0 0 0 0 0 0 0 0 0 0 0 0 0 0 0 127 0" result="hardAlpha"/>
<feOffset dx="10" dy="11"/>
<feGaussianBlur stdDeviation="4"/>
<feComposite in2="hardAlpha" operator="out"/>
<feColorMatrix type="matrix" values="0 0 0 0 0 0 0 0 0 0 0 0 0 0 0 0 0 0 0.25 0"/>
<feBlend mode="normal" in2="BackgroundImageFix" result="effect1_dropShadow_337_2"/>
<feBlend mode="normal" in="SourceGraphic" in2="effect1_dropShadow_337_2" result="shape"/>
</filter>
</defs>
</svg>
