<svg width="328" height="160" viewBox="0 0 328 160" fill="none" xmlns="http://www.w3.org/2000/svg">
<path d="M159.134 59.1583C162.233 57.784 165.767 57.784 168.866 59.1583L254.246 97.0307C266.098 102.288 262.346 120 249.38 120H78.6198C65.6541 120 61.9021 102.288 73.7541 97.0307L159.134 59.1583Z" fill="#DC2626"/>
<path d="M168.866 157.842C165.767 159.216 162.233 159.216 159.134 157.842L73.7542 119.969C61.9021 114.712 65.6541 97 78.6198 97H249.38C262.346 97 266.098 114.712 254.246 119.969L168.866 157.842Z" fill="#DC2626"/>
<path d="M159.134 40.1583C162.233 38.784 165.767 38.784 168.866 40.1583L254.246 78.0307C266.098 83.288 262.346 101 249.38 101H78.6198C65.6541 101 61.9021 83.288 73.7541 78.0307L159.134 40.1583Z" fill="#D97706"/>
<path d="M168.866 138.842C165.767 140.216 162.233 140.216 159.134 138.842L73.7542 100.969C61.9021 95.712 65.6541 78 78.6198 78H249.38C262.346 78 266.098 95.712 254.246 100.969L168.866 138.842Z" fill="#D97706"/>
<path d="M159.134 21.1583C162.233 19.784 165.767 19.784 168.866 21.1583L254.246 59.0307C266.098 64.288 262.346 82 249.38 82H78.6198C65.6541 82 61.9021 64.288 73.7541 59.0307L159.134 21.1583Z" fill="#FBBF24"/>
<path d="M168.866 119.842C165.767 121.216 162.233 121.216 159.134 119.842L73.7542 81.9693C61.9021 76.712 65.6541 59 78.6198 59H249.38C262.346 59 266.098 76.712 254.246 81.9693L168.866 119.842Z" fill="#FBBF24"/>
<path d="M159.134 2.1583C162.233 0.784002 165.767 0.783998 168.866 2.15829L254.246 40.0307C266.098 45.288 262.346 63 249.38 63H78.6198C65.6541 63 61.9021 45.288 73.7541 40.0307L159.134 2.1583Z" fill="#FEF3C7"/>
<path d="M168.866 100.842C165.767 102.216 162.233 102.216 159.134 100.842L73.7542 62.9693C61.9021 57.712 65.6541 40 78.6198 40H249.38C262.346 40 266.098 57.712 254.246 62.9693L168.866 100.842Z" fill="#FEF3C7"/>
</svg>
