<?xml version="1.0" encoding="UTF-8"?>
<!DOCTYPE svg PUBLIC "-//W3C//DTD SVG 1.1//EN" "http://www.w3.org/Graphics/SVG/1.1/DTD/svg11.dtd">
<svg xmlns="http://www.w3.org/2000/svg" version="1.1" width="860px" height="860px" style="shape-rendering:geometricPrecision; text-rendering:geometricPrecision; image-rendering:optimizeQuality; fill-rule:evenodd; clip-rule:evenodd" xmlns:xlink="http://www.w3.org/1999/xlink">
<g><path style="opacity:0.999" fill="#0051fd" d="M 400.5,-0.5 C 419.833,-0.5 439.167,-0.5 458.5,-0.5C 595.523,11.9034 704.023,73.57 784,184.5C 828.165,249.828 853.332,321.828 859.5,400.5C 859.5,419.833 859.5,439.167 859.5,458.5C 846.921,595.424 785.255,703.924 674.5,784C 609.172,828.165 537.172,853.332 458.5,859.5C 439.167,859.5 419.833,859.5 400.5,859.5C 263.576,846.921 155.076,785.255 75,674.5C 30.8383,609.183 5.67161,537.183 -0.5,458.5C -0.5,439.167 -0.5,419.833 -0.5,400.5C 11.9034,263.477 73.57,154.977 184.5,75C 249.817,30.8383 321.817,5.67161 400.5,-0.5 Z"/></g>
<g><path style="opacity:1" fill="#3165dd" d="M 457.5,128.5 C 436.832,127.181 416.165,127.181 395.5,128.5C 397.631,127.686 399.964,127.186 402.5,127C 420.5,126.333 438.5,126.333 456.5,127C 457.056,127.383 457.389,127.883 457.5,128.5 Z"/></g>
<g><path style="opacity:1" fill="#fefefe" d="M 457.5,128.5 C 458.833,128.5 460.167,128.5 461.5,128.5C 473.41,130.263 485.41,132.263 497.5,134.5C 505.401,136.813 513.401,139.146 521.5,141.5C 521.833,141.5 522.167,141.5 522.5,141.5C 527.941,143.871 533.608,145.871 539.5,147.5C 549.006,152.01 558.672,156.343 568.5,160.5C 579.159,166.83 589.825,173.163 600.5,179.5C 633.251,202.917 660.918,231.25 683.5,264.5C 690.541,277.192 697.541,289.858 704.5,302.5C 705.059,305.943 706.393,308.943 708.5,311.5C 711.462,320.729 714.795,329.729 718.5,338.5C 719.01,341.539 719.677,344.539 720.5,347.5C 722.614,355.231 724.614,362.898 726.5,370.5C 727.159,373.455 727.492,376.455 727.5,379.5C 729.302,387.718 730.302,396.052 730.5,404.5C 679.833,404.5 629.167,404.5 578.5,404.5C 578.039,398.836 576.706,393.503 574.5,388.5C 570.352,371.541 563.019,356.208 552.5,342.5C 545.274,331.27 536.274,321.604 525.5,313.5C 523.082,310.453 520.082,308.12 516.5,306.5C 506.367,298.431 495.034,292.431 482.5,288.5C 476.512,285.728 470.178,283.728 463.5,282.5C 446.511,278.755 429.178,277.588 411.5,279C 405.92,279.646 400.586,280.812 395.5,282.5C 388.699,283.324 382.365,285.324 376.5,288.5C 376.167,288.5 375.833,288.5 375.5,288.5C 369.402,290.384 363.735,293.051 358.5,296.5C 341.145,305.186 326.478,317.186 314.5,332.5C 308.094,339.084 302.594,346.417 298,354.5C 293.989,361.516 290.822,368.85 288.5,376.5C 285.584,382.458 283.417,388.791 282,395.5C 274.754,429.174 278.254,461.507 292.5,492.5C 308.163,526.163 332.83,550.83 366.5,566.5C 369.088,568.592 372.088,569.925 375.5,570.5C 379.502,572.61 383.835,573.943 388.5,574.5C 390.515,575.924 392.848,576.59 395.5,576.5C 405.658,579.416 416.158,580.749 427,580.5C 435.376,580.561 443.543,579.894 451.5,578.5C 470.983,576.137 488.983,569.804 505.5,559.5C 513.341,555.657 520.341,550.657 526.5,544.5C 538.815,535.198 548.815,523.864 556.5,510.5C 561.809,503.551 565.809,495.884 568.5,487.5C 573.2,477.383 576.367,466.717 578,455.5C 578.671,454.748 579.504,454.414 580.5,454.5C 630.5,454.5 680.5,454.5 730.5,454.5C 729.829,462.876 728.829,471.21 727.5,479.5C 727.5,480.167 727.5,480.833 727.5,481.5C 725.021,493.092 722.354,504.759 719.5,516.5C 712.263,538.196 703.263,559.196 692.5,579.5C 682.977,594.698 672.644,609.364 661.5,623.5C 652.561,634.108 642.894,644.108 632.5,653.5C 624.312,660.748 615.979,667.748 607.5,674.5C 587.557,687.974 566.557,699.641 544.5,709.5C 531.478,714.063 518.478,718.396 505.5,722.5C 502.37,722.7 499.37,723.366 496.5,724.5C 491.304,725.139 486.304,726.139 481.5,727.5C 452.948,731.483 424.281,732.483 395.5,730.5C 376.676,727.798 358.01,723.798 339.5,718.5C 294.238,703.543 254.238,679.876 219.5,647.5C 217.167,644.5 214.5,641.833 211.5,639.5C 191.754,617.762 174.754,594.096 160.5,568.5C 158.07,562.643 155.403,556.977 152.5,551.5C 150.403,545.651 148.069,539.985 145.5,534.5C 145.5,534.167 145.5,533.833 145.5,533.5C 142.467,524.071 139.467,514.738 136.5,505.5C 133.968,493.071 131.635,480.737 129.5,468.5C 129.5,468.167 129.5,467.833 129.5,467.5C 129.348,461.301 128.682,455.301 127.5,449.5C 127.5,446.167 127.5,442.833 127.5,439.5C 126.891,420.4 127.891,401.4 130.5,382.5C 133.403,367.752 136.737,353.085 140.5,338.5C 144.063,329.685 147.396,320.685 150.5,311.5C 151.345,310.329 152.011,308.995 152.5,307.5C 155.403,302.023 158.07,296.357 160.5,290.5C 166.817,279.874 173.15,269.207 179.5,258.5C 205.141,221.854 237.141,192.188 275.5,169.5C 284.193,163.937 293.193,158.937 302.5,154.5C 304.819,154.008 306.819,153.008 308.5,151.5C 316.935,148.783 325.268,145.783 333.5,142.5C 340.254,140.482 346.921,138.482 353.5,136.5C 354.167,136.5 354.833,136.5 355.5,136.5C 366.148,133.639 376.815,131.305 387.5,129.5C 390.385,129.806 393.052,129.473 395.5,128.5C 416.165,127.181 436.832,127.181 457.5,128.5 Z"/></g>
<g><path style="opacity:1" fill="#295ce1" d="M 387.5,129.5 C 376.815,131.305 366.148,133.639 355.5,136.5C 355.5,135.833 355.5,135.167 355.5,134.5C 365.932,131.483 376.598,129.816 387.5,129.5 Z"/></g>
<g><path style="opacity:1" fill="#3060de" d="M 461.5,128.5 C 469.083,128.327 476.583,128.993 484,130.5C 488.83,131.17 493.33,132.503 497.5,134.5C 485.41,132.263 473.41,130.263 461.5,128.5 Z"/></g>
<g><path style="opacity:1" fill="#0c54f6" d="M 355.5,134.5 C 355.5,135.167 355.5,135.833 355.5,136.5C 354.833,136.5 354.167,136.5 353.5,136.5C 347.064,137.048 340.731,138.214 334.5,140C 333.748,140.671 333.414,141.504 333.5,142.5C 325.268,145.783 316.935,148.783 308.5,151.5C 309.092,148.873 309.425,146.206 309.5,143.5C 314.064,142.526 318.564,142.526 323,143.5C 324.067,142.809 325.234,142.309 326.5,142C 326.306,140.097 326.306,138.263 326.5,136.5C 329.657,132.265 331.991,132.598 333.5,137.5C 335.199,137.66 336.866,137.494 338.5,137C 337.366,135.984 337.699,135.317 339.5,135C 344.985,134.835 350.318,134.669 355.5,134.5 Z"/></g>
<g><path style="opacity:1" fill="#2159f0" d="M 497.5,134.5 C 504.954,135.127 512.287,135.127 519.5,134.5C 519.52,136.143 518.853,137.476 517.5,138.5C 519.184,139.15 520.517,140.15 521.5,141.5C 513.401,139.146 505.401,136.813 497.5,134.5 Z"/></g>
<g><path style="opacity:1" fill="#3060e5" d="M 353.5,136.5 C 346.921,138.482 340.254,140.482 333.5,142.5C 333.414,141.504 333.748,140.671 334.5,140C 340.731,138.214 347.064,137.048 353.5,136.5 Z"/></g>
<g><path style="opacity:1" fill="#305edf" d="M 522.5,141.5 C 527.717,141.975 532.717,143.142 537.5,145C 538.381,145.708 539.047,146.542 539.5,147.5C 533.608,145.871 527.941,143.871 522.5,141.5 Z"/></g>
<g><path style="opacity:1" fill="#2259e9" d="M 539.5,147.5 C 543.833,148.167 548.167,148.833 552.5,149.5C 552.5,150.5 552.5,151.5 552.5,152.5C 556.543,152.998 560.377,154.331 564,156.5C 567.027,155.518 568.527,156.851 568.5,160.5C 558.672,156.343 549.006,152.01 539.5,147.5 Z"/></g>
<g><path style="opacity:1" fill="#1656f4" d="M 302.5,154.5 C 293.193,158.937 284.193,163.937 275.5,169.5C 275.5,168.5 275.5,167.5 275.5,166.5C 276.552,166.649 277.552,166.483 278.5,166C 277.483,164.951 277.316,163.784 278,162.5C 278.837,164.007 280.004,164.507 281.5,164C 279.167,162.757 278.5,161.091 279.5,159C 279.833,158.833 280.167,158.667 280.5,158.5C 281.571,162.046 283.071,162.046 285,158.5C 287.55,159.98 289.383,159.313 290.5,156.5C 288.833,155.5 287.5,154.167 286.5,152.5C 287.167,152.167 287.833,151.833 288.5,151.5C 290.628,153.371 292.961,155.038 295.5,156.5C 296.167,156.333 296.833,156.167 297.5,156C 295.729,155.465 295.396,154.631 296.5,153.5C 298.409,154.348 300.409,154.682 302.5,154.5 Z"/></g>
<g><path style="opacity:1" fill="#0d54f8" d="M 600.5,179.5 C 603.096,180.265 605.763,180.599 608.5,180.5C 608.01,182.948 608.843,184.615 611,185.5C 614.956,183.721 619.123,183.054 623.5,183.5C 623.201,185.604 623.534,187.604 624.5,189.5C 625.425,188.359 626.259,188.359 627,189.5C 627.251,191.433 627.751,193.266 628.5,195C 627.692,195.308 627.025,195.808 626.5,196.5C 628.003,197.052 629.669,197.052 631.5,196.5C 631.5,194.833 631.5,193.167 631.5,191.5C 634.167,191.5 636.833,191.5 639.5,191.5C 639.666,195.846 639.499,200.179 639,204.5C 638.308,205.025 637.808,205.692 637.5,206.5C 640.295,206.984 642.962,208.484 645.5,211C 642.79,213.351 643.123,215.351 646.5,217C 647.793,217.49 649.127,217.657 650.5,217.5C 650.343,216.127 650.51,214.793 651,213.5C 651.667,214.833 652.333,214.833 653,213.5C 654.382,215.792 654.882,218.125 654.5,220.5C 653.624,221.251 652.624,221.751 651.5,222C 653.377,224.642 655.711,226.809 658.5,228.5C 660.895,227.477 661.895,228.477 661.5,231.5C 664.833,231.5 668.167,231.5 671.5,231.5C 671.5,232.833 671.5,234.167 671.5,235.5C 665.107,236.463 665.273,237.796 672,239.5C 672.49,240.793 672.657,242.127 672.5,243.5C 677.5,243.5 682.5,243.5 687.5,243.5C 687.137,247.683 687.804,251.683 689.5,255.5C 689.075,257.38 688.075,258.88 686.5,260C 689.205,263.757 688.705,264.257 685,261.5C 683.961,262.244 683.461,263.244 683.5,264.5C 660.918,231.25 633.251,202.917 600.5,179.5 Z"/></g>
<g><path style="opacity:1" fill="#1455f2" d="M 179.5,258.5 C 173.15,269.207 166.817,279.874 160.5,290.5C 160.608,286.787 161.942,283.62 164.5,281C 163.448,279.284 164.114,278.284 166.5,278C 165.483,276.951 165.316,275.784 166,274.5C 166.414,274.957 166.914,275.291 167.5,275.5C 168.23,273.659 168.897,271.825 169.5,270C 168.552,269.517 167.552,269.351 166.5,269.5C 166.232,266.881 166.565,264.381 167.5,262C 171.99,260.947 172.656,262.28 169.5,266C 170,266.5 170.5,267 171,267.5C 171.71,266.027 172.876,265.36 174.5,265.5C 174.337,263.143 174.503,260.81 175,258.5C 176.414,257.587 177.914,257.587 179.5,258.5 Z"/></g>
<g><path style="opacity:1" fill="#0f54f5" d="M 683.5,264.5 C 684.5,264.5 685.5,264.5 686.5,264.5C 685.986,270.254 688.319,272.254 693.5,270.5C 692.833,272.5 692.167,274.5 691.5,276.5C 692.822,276.67 693.989,276.337 695,275.5C 698.974,277.256 703.141,278.59 707.5,279.5C 707.5,282.167 707.5,284.833 707.5,287.5C 706.5,287.5 705.5,287.5 704.5,287.5C 704.5,292.5 704.5,297.5 704.5,302.5C 697.541,289.858 690.541,277.192 683.5,264.5 Z"/></g>
<g><path style="opacity:1" fill="#2e5ce0" d="M 463.5,282.5 C 451.999,281.055 440.332,280.389 428.5,280.5C 417.413,280.358 406.413,281.024 395.5,282.5C 400.586,280.812 405.92,279.646 411.5,279C 429.178,277.588 446.511,278.755 463.5,282.5 Z"/></g>
<g><path style="opacity:1" fill="#295cdd" d="M 463.5,282.5 C 470.178,283.728 476.512,285.728 482.5,288.5C 482.167,288.5 481.833,288.5 481.5,288.5C 475.72,287.313 470.054,285.813 464.5,284C 463.944,283.617 463.611,283.117 463.5,282.5 Z"/></g>
<g><path style="opacity:1" fill="#2559e4" d="M 395.5,282.5 C 391.317,283.784 387.317,285.618 383.5,288C 381.19,288.497 378.857,288.663 376.5,288.5C 382.365,285.324 388.699,283.324 395.5,282.5 Z"/></g>
<g><path style="opacity:1" fill="#1856f1" d="M 481.5,288.5 C 481.833,288.5 482.167,288.5 482.5,288.5C 495.034,292.431 506.367,298.431 516.5,306.5C 513.266,305.424 509.932,304.757 506.5,304.5C 506.657,303.127 506.49,301.793 506,300.5C 505.586,300.957 505.086,301.291 504.5,301.5C 502.758,297.961 500.091,296.628 496.5,297.5C 495.614,296.675 495.281,295.675 495.5,294.5C 493.738,294.643 492.071,294.309 490.5,293.5C 485.992,297.481 481.658,297.148 477.5,292.5C 479.188,291.479 480.521,290.145 481.5,288.5 Z"/></g>
<g><path style="opacity:1" fill="#2259e5" d="M 375.5,288.5 C 373.682,290.567 371.349,291.9 368.5,292.5C 367.614,293.325 367.281,294.325 367.5,295.5C 364.482,295.704 361.482,296.037 358.5,296.5C 363.735,293.051 369.402,290.384 375.5,288.5 Z"/></g>
<g><path style="opacity:1" fill="#235ae7" d="M 160.5,290.5 C 158.07,296.357 155.403,302.023 152.5,307.5C 154.14,301.601 155.474,295.601 156.5,289.5C 157.736,290.246 159.07,290.579 160.5,290.5 Z"/></g>
<g><path style="opacity:1" fill="#295edd" d="M 516.5,306.5 C 520.082,308.12 523.082,310.453 525.5,313.5C 521.879,311.869 518.879,309.535 516.5,306.5 Z"/></g>
<g><path style="opacity:1" fill="#1254f4" d="M 358.5,296.5 C 357.895,298.026 356.729,299.026 355,299.5C 354.966,301.18 354.799,302.68 354.5,304C 353.069,304.465 351.903,305.299 351,306.5C 348.584,302.455 347.084,302.788 346.5,307.5C 345.022,307.238 343.689,307.571 342.5,308.5C 347.475,308.92 347.808,311.086 343.5,315C 344.793,315.49 346.127,315.657 347.5,315.5C 347.5,316.833 347.5,318.167 347.5,319.5C 344.833,319.5 342.167,319.5 339.5,319.5C 339.762,320.978 339.429,322.311 338.5,323.5C 337.147,322.315 335.98,320.981 335,319.5C 332.158,319.137 329.324,319.637 326.5,321C 322.631,325.037 318.631,328.87 314.5,332.5C 326.478,317.186 341.145,305.186 358.5,296.5 Z"/></g>
<g><path style="opacity:1" fill="#295de4" d="M 150.5,311.5 C 147.396,320.685 144.063,329.685 140.5,338.5C 140.777,332.384 142.444,326.718 145.5,321.5C 145.081,320.328 144.415,319.328 143.5,318.5C 144.376,317.749 145.376,317.249 146.5,317C 147.749,315.02 149.082,313.187 150.5,311.5 Z"/></g>
<g><path style="opacity:1" fill="#255ce8" d="M 708.5,311.5 C 710.362,313.891 711.696,316.558 712.5,319.5C 713.5,319.5 714.5,319.5 715.5,319.5C 715.861,325.966 716.861,332.299 718.5,338.5C 714.795,329.729 711.462,320.729 708.5,311.5 Z"/></g>
<g><path style="opacity:1" fill="#295ee0" d="M 720.5,347.5 C 721.957,349.242 723.124,351.242 724,353.5C 724.998,359.155 725.832,364.822 726.5,370.5C 724.614,362.898 722.614,355.231 720.5,347.5 Z"/></g>
<g><path style="opacity:1" fill="#1d58f0" d="M 552.5,342.5 C 563.019,356.208 570.352,371.541 574.5,388.5C 571.819,384.652 569.986,380.319 569,375.5C 568.333,376.833 567.667,376.833 567,375.5C 566.503,373.19 566.337,370.857 566.5,368.5C 564.194,368.993 561.861,369.326 559.5,369.5C 559.141,367.234 559.808,365.401 561.5,364C 560.313,362.981 559.313,361.814 558.5,360.5C 559.383,359.452 560.05,358.285 560.5,357C 559.293,355.7 558.626,354.2 558.5,352.5C 557.5,352.5 556.5,352.5 555.5,352.5C 554.043,349.348 553.043,346.015 552.5,342.5 Z"/></g>
<g><path style="opacity:1" fill="#1455f3" d="M 288.5,376.5 C 288.337,378.857 288.503,381.19 289,383.5C 289.667,380.833 290.333,380.833 291,383.5C 291.497,386.146 291.664,388.813 291.5,391.5C 295.63,391.534 299.63,392.201 303.5,393.5C 303.5,396.833 303.5,400.167 303.5,403.5C 302.167,403.5 300.833,403.5 299.5,403.5C 299.762,404.978 299.429,406.311 298.5,407.5C 297.52,404.914 297.187,402.247 297.5,399.5C 296.167,399.5 294.833,399.5 293.5,399.5C 293.5,398.167 293.5,396.833 293.5,395.5C 290.112,395.188 287.612,396.521 286,399.5C 285.585,402.707 285.918,405.707 287,408.5C 285.853,409.458 284.853,409.125 284,407.5C 283.667,408.833 283.333,410.167 283,411.5C 282.751,410.376 282.251,409.376 281.5,408.5C 280.334,421.154 280.167,433.82 281,446.5C 281.333,446.167 281.667,445.833 282,445.5C 282.359,448.544 283.026,448.878 284,446.5C 284.848,449.415 286.348,451.915 288.5,454C 288.265,456.352 288.099,458.852 288,461.5C 283.918,464.141 283.585,467.141 287,470.5C 287.94,476.057 289.44,481.39 291.5,486.5C 292.086,486.709 292.586,487.043 293,487.5C 293.216,485.616 293.883,483.949 295,482.5C 295.991,483.43 296.491,484.596 296.5,486C 295.434,488.355 294.101,490.521 292.5,492.5C 278.254,461.507 274.754,429.174 282,395.5C 283.417,388.791 285.584,382.458 288.5,376.5 Z"/></g>
<g><path style="opacity:1" fill="#2860e4" d="M 130.5,382.5 C 127.891,401.4 126.891,420.4 127.5,439.5C 125.985,420.934 126.485,402.267 129,383.5C 129.383,382.944 129.883,382.611 130.5,382.5 Z"/></g>
<g><path style="opacity:1" fill="#1251d1" d="M 727.5,379.5 C 728.15,379.804 728.817,380.137 729.5,380.5C 730.049,385.644 730.882,390.644 732,395.5C 732.784,398.76 732.617,401.927 731.5,405C 680.163,405.833 628.83,405.667 577.5,404.5C 575.575,399.338 574.575,394.005 574.5,388.5C 576.706,393.503 578.039,398.836 578.5,404.5C 629.167,404.5 679.833,404.5 730.5,404.5C 730.302,396.052 729.302,387.718 727.5,379.5 Z"/></g>
<g><path style="opacity:1" fill="#0d57e9" d="M 729.5,453.5 C 679.664,453.168 629.997,453.501 580.5,454.5C 579.504,454.414 578.671,454.748 578,455.5C 576.367,466.717 573.2,477.383 568.5,487.5C 571.445,476.202 574.111,464.868 576.5,453.5C 627.64,452.178 678.64,452.178 729.5,453.5 Z"/></g>
<g><path style="opacity:1" fill="#1a59d3" d="M 580.5,454.5 C 629.997,453.501 679.664,453.168 729.5,453.5C 730.5,453.5 731.5,453.5 732.5,453.5C 731.668,461.493 730.834,469.493 730,477.5C 729.292,478.381 728.458,479.047 727.5,479.5C 728.829,471.21 729.829,462.876 730.5,454.5C 680.5,454.5 630.5,454.5 580.5,454.5 Z"/></g>
<g><path style="opacity:1" fill="#537cde" d="M 127.5,449.5 C 128.682,455.301 129.348,461.301 129.5,467.5C 127.943,461.739 127.276,455.739 127.5,449.5 Z"/></g>
<g><path style="opacity:1" fill="#225aec" d="M 568.5,487.5 C 565.809,495.884 561.809,503.551 556.5,510.5C 556.5,508.5 556.5,506.5 556.5,504.5C 557.5,504.5 558.5,504.5 559.5,504.5C 559.5,500.833 559.5,497.167 559.5,493.5C 560.93,493.421 562.264,493.754 563.5,494.5C 564.97,491.841 566.636,489.508 568.5,487.5 Z"/></g>
<g><path style="opacity:1" fill="#2c5de4" d="M 129.5,468.5 C 131.635,480.737 133.968,493.071 136.5,505.5C 134.905,503.889 133.739,501.889 133,499.5C 132.667,496.5 132.333,493.5 132,490.5C 131.333,491.167 130.667,491.833 130,492.5C 130.445,484.526 130.279,476.526 129.5,468.5 Z"/></g>
<g><path style="opacity:1" fill="#275de5" d="M 727.5,481.5 C 727.412,488.791 726.412,495.957 724.5,503C 724.825,505.235 724.992,507.402 725,509.5C 724.333,508.833 723.667,508.167 723,507.5C 722.691,510.942 721.524,513.942 719.5,516.5C 722.354,504.759 725.021,493.092 727.5,481.5 Z"/></g>
<g><path style="opacity:1" fill="#2158ef" d="M 136.5,505.5 C 139.467,514.738 142.467,524.071 145.5,533.5C 143.059,531.925 141.893,529.592 142,526.5C 141,525.5 140,524.5 139,523.5C 138.667,524.833 138.333,526.167 138,527.5C 137,528.833 136,528.833 135,527.5C 133.891,524.053 134.891,521.386 138,519.5C 138.423,520.956 139.256,521.456 140.5,521C 137.333,516.339 135.999,511.172 136.5,505.5 Z"/></g>
<g><path style="opacity:1" fill="#1054f7" d="M 719.5,516.5 C 719.165,524.493 718.831,532.493 718.5,540.5C 717.833,538.833 717.167,537.167 716.5,535.5C 714.937,536.945 713.604,538.611 712.5,540.5C 713.816,541.807 714.816,543.307 715.5,545C 716.549,545.492 717.549,545.326 718.5,544.5C 719.496,550.798 719.83,557.132 719.5,563.5C 716.833,563.5 714.167,563.5 711.5,563.5C 711.5,564.833 711.5,566.167 711.5,567.5C 710.167,567.5 708.833,567.5 707.5,567.5C 707.5,568.833 707.5,570.167 707.5,571.5C 704.779,570.859 702.112,570.359 699.5,570C 697.625,572.709 695.958,575.542 694.5,578.5C 694.043,579.298 693.376,579.631 692.5,579.5C 703.263,559.196 712.263,538.196 719.5,516.5 Z"/></g>
<g><path style="opacity:1" fill="#1f58f0" d="M 145.5,534.5 C 148.069,539.985 150.403,545.651 152.5,551.5C 150.952,551.179 150.285,550.179 150.5,548.5C 149.5,548.5 148.5,548.5 147.5,548.5C 147.286,550.144 147.62,551.644 148.5,553C 146.272,553.82 144.272,553.487 142.5,552C 144.922,549.379 146.589,546.379 147.5,543C 146.383,540.269 145.717,537.435 145.5,534.5 Z"/></g>
<g><path style="opacity:1" fill="#1c58f0" d="M 526.5,544.5 C 520.341,550.657 513.341,555.657 505.5,559.5C 506.234,558.292 506.567,556.959 506.5,555.5C 507.5,555.5 508.5,555.5 509.5,555.5C 509.5,553.833 509.5,552.167 509.5,550.5C 515.333,551.674 518.5,549.341 519,543.5C 519.7,545.032 520.866,546.032 522.5,546.5C 523.524,545.147 524.857,544.48 526.5,544.5 Z"/></g>
<g><path style="opacity:1" fill="#1454f3" d="M 505.5,559.5 C 488.983,569.804 470.983,576.137 451.5,578.5C 456.417,577.143 461.417,575.643 466.5,574C 464.833,572.833 463.167,571.667 461.5,570.5C 462.246,569.264 462.579,567.93 462.5,566.5C 463.93,566.579 465.264,566.246 466.5,565.5C 467.584,566.665 468.417,567.998 469,569.5C 469.333,568.833 469.667,568.167 470,567.5C 472.571,569.492 475.571,570.492 479,570.5C 481.59,570.055 484.09,569.389 486.5,568.5C 486.297,566.61 486.963,565.11 488.5,564C 485.833,563.333 485.833,562.667 488.5,562C 485.936,560.519 485.936,559.019 488.5,557.5C 489.452,559.045 489.785,560.712 489.5,562.5C 490.552,562.649 491.552,562.483 492.5,562C 494.499,557.653 496.666,557.486 499,561.5C 500,560.5 501,559.5 502,558.5C 503.011,559.337 504.178,559.67 505.5,559.5 Z"/></g>
<g><path style="opacity:1" fill="#255be5" d="M 152.5,551.5 C 155.403,556.977 158.07,562.643 160.5,568.5C 159.25,568.423 158.417,567.756 158,566.5C 157.667,566.833 157.333,567.167 157,567.5C 156.587,564.768 155.92,562.101 155,559.5C 153.865,559.273 152.698,558.94 151.5,558.5C 152.374,556.253 152.708,553.92 152.5,551.5 Z"/></g>
<g><path style="opacity:1" fill="#3564df" d="M 366.5,566.5 C 370.236,566.541 373.236,567.874 375.5,570.5C 372.088,569.925 369.088,568.592 366.5,566.5 Z"/></g>
<g><path style="opacity:1" fill="#315fdf" d="M 375.5,570.5 C 380.452,570.15 384.786,571.483 388.5,574.5C 383.835,573.943 379.502,572.61 375.5,570.5 Z"/></g>
<g><path style="opacity:1" fill="#275ade" d="M 395.5,576.5 C 414.094,578.317 432.76,578.984 451.5,578.5C 443.543,579.894 435.376,580.561 427,580.5C 416.158,580.749 405.658,579.416 395.5,576.5 Z"/></g>
<g><path style="opacity:1" fill="#0a53f8" d="M 692.5,579.5 C 693.324,582.764 693.658,586.098 693.5,589.5C 694.5,589.5 695.5,589.5 696.5,589.5C 696.5,588.167 696.5,586.833 696.5,585.5C 698.737,586.449 701.071,587.116 703.5,587.5C 703.5,592.833 703.5,598.167 703.5,603.5C 702.167,603.5 700.833,603.5 699.5,603.5C 699.762,604.978 699.429,606.311 698.5,607.5C 697.52,604.914 697.187,602.247 697.5,599.5C 695.5,599.5 693.5,599.5 691.5,599.5C 691.5,602.167 691.5,604.833 691.5,607.5C 690.167,607.5 688.833,607.5 687.5,607.5C 687.5,610.167 687.5,612.833 687.5,615.5C 686.167,615.5 684.833,615.5 683.5,615.5C 683.992,611.71 683.159,611.044 681,613.5C 680.275,611.842 679.108,611.342 677.5,612C 676.253,613.458 676.253,614.958 677.5,616.5C 676.167,617.833 674.833,617.833 673.5,616.5C 674.879,615.137 674.713,614.137 673,613.5C 671.5,615 670,616.5 668.5,618C 668.645,618.772 668.978,619.439 669.5,620C 666.929,621.454 664.262,622.62 661.5,623.5C 672.644,609.364 682.977,594.698 692.5,579.5 Z"/></g>
<g><path style="opacity:1" fill="#235ede" d="M 211.5,639.5 C 214.5,641.833 217.167,644.5 219.5,647.5C 217.052,645.716 214.385,644.382 211.5,643.5C 211.5,642.167 211.5,640.833 211.5,639.5 Z"/></g>
<g><path style="opacity:1" fill="#225ae3" d="M 632.5,653.5 C 631.118,656.394 629.118,658.894 626.5,661C 626.957,661.414 627.291,661.914 627.5,662.5C 621.268,664.231 616.268,667.731 612.5,673C 610.846,673.608 609.179,674.108 607.5,674.5C 615.979,667.748 624.312,660.748 632.5,653.5 Z"/></g>
<g><path style="opacity:1" fill="#3263dc" d="M 544.5,709.5 C 542.3,711.64 539.633,713.14 536.5,714C 528.105,716.465 519.772,719.132 511.5,722C 509.527,722.495 507.527,722.662 505.5,722.5C 518.478,718.396 531.478,714.063 544.5,709.5 Z"/></g>
<g><path style="opacity:1" fill="#1f58e8" d="M 339.5,718.5 C 358.01,723.798 376.676,727.798 395.5,730.5C 390.156,730.666 384.823,730.499 379.5,730C 369.929,727.926 360.263,726.092 350.5,724.5C 348.202,724.732 346.035,725.399 344,726.5C 342.72,726.387 341.887,725.72 341.5,724.5C 342.737,723.719 343.737,722.719 344.5,721.5C 342.456,720.935 340.79,719.935 339.5,718.5 Z"/></g>
<g><path style="opacity:1" fill="#4268e0" d="M 496.5,724.5 C 496.389,725.117 496.056,725.617 495.5,726C 490.882,726.994 486.215,727.494 481.5,727.5C 486.304,726.139 491.304,725.139 496.5,724.5 Z"/></g>
<g><path style="opacity:1" fill="#3263e2" d="M 481.5,727.5 C 481.196,728.15 480.863,728.817 480.5,729.5C 452.631,732.443 424.631,733.277 396.5,732C 395.944,731.617 395.611,731.117 395.5,730.5C 424.281,732.483 452.948,731.483 481.5,727.5 Z"/></g>
</svg>
