<?xml version="1.0" encoding="UTF-8"?>
<!DOCTYPE svg PUBLIC "-//W3C//DTD SVG 1.1//EN" "http://www.w3.org/Graphics/SVG/1.1/DTD/svg11.dtd">
<svg xmlns="http://www.w3.org/2000/svg" version="1.1" width="512px" height="512px" style="shape-rendering:geometricPrecision; text-rendering:geometricPrecision; image-rendering:optimizeQuality; fill-rule:evenodd; clip-rule:evenodd" xmlns:xlink="http://www.w3.org/1999/xlink">
<g><path style="opacity:0.999" fill="#016630" d="M 57.5,-0.5 C 189.5,-0.5 321.5,-0.5 453.5,-0.5C 484.509,7.17551 503.842,26.5088 511.5,57.5C 511.5,189.5 511.5,321.5 511.5,453.5C 503.833,484.5 484.5,503.833 453.5,511.5C 321.5,511.5 189.5,511.5 57.5,511.5C 26.5,503.833 7.16667,484.5 -0.5,453.5C -0.5,321.5 -0.5,189.5 -0.5,57.5C 7.16667,26.5 26.5,7.16667 57.5,-0.5 Z"/></g>
<g><path style="opacity:1" fill="#fdfefe" d="M 251.5,128.5 C 255.891,134.259 260.057,140.259 264,146.5C 281.047,175.432 298.214,204.266 315.5,233C 294.778,246.45 273.611,259.283 252,271.5C 230.71,259.112 209.877,246.112 189.5,232.5C 210.178,197.806 230.845,163.139 251.5,128.5 Z"/></g>
<g><path style="opacity:1" fill="#f8faf9" d="M 175.5,179.5 C 183.265,184.083 190.932,188.916 198.5,194C 202.988,198.4 202.321,201.567 196.5,203.5C 192.223,201.067 188.057,198.4 184,195.5C 183.267,201.826 182.601,208.16 182,214.5C 177.271,219.091 174.104,218.258 172.5,212C 174.197,201.228 175.197,190.394 175.5,179.5 Z"/></g>
<g><path style="opacity:1" fill="#f5f9f6" d="M 324.5,179.5 C 326.045,180.23 326.878,181.563 327,183.5C 328.664,194.136 329.664,204.803 330,215.5C 326.111,218.611 323.111,217.944 321,213.5C 320.667,209.833 320.333,206.167 320,202.5C 319.767,200.22 318.934,198.22 317.5,196.5C 313.79,199.354 309.79,201.687 305.5,203.5C 300.426,202.024 299.426,199.191 302.5,195C 310.29,190.359 317.624,185.192 324.5,179.5 Z"/></g>
<g><path style="opacity:1" fill="#f9fbfa" d="M 147.5,217.5 C 158.842,220.67 170.009,224.336 181,228.5C 183.318,232.874 181.985,235.54 177,236.5C 170.28,234.054 163.447,232.054 156.5,230.5C 156.099,246.21 156.599,261.877 158,277.5C 161.436,290.203 168.269,300.703 178.5,309C 203.245,322.788 227.745,336.954 252,351.5C 274.923,337.954 298.09,324.787 321.5,312C 336.19,302.794 345.023,289.627 348,272.5C 348.5,258.504 348.667,244.504 348.5,230.5C 340.748,232.082 333.081,234.082 325.5,236.5C 321.011,236.167 319.511,233.833 321,229.5C 325.208,227.094 329.708,225.26 334.5,224C 342.104,221.52 349.771,219.353 357.5,217.5C 357.667,236.503 357.5,255.503 357,274.5C 353.78,292.777 344.613,307.277 329.5,318C 305.833,331.5 282.167,345 258.5,358.5C 277.955,366.377 298.122,371.044 319,372.5C 342.375,372.048 363.208,364.714 381.5,350.5C 370.519,337.685 359.353,325.018 348,312.5C 348.902,304.534 352.236,303.534 358,309.5C 370.128,323.964 382.628,338.13 395.5,352C 367.261,376.433 334.594,385.766 297.5,380C 282.149,376.105 266.982,371.605 252,366.5C 236.337,371.61 220.504,376.11 204.5,380C 168.044,385.623 136.044,376.289 108.5,352C 121.039,338.463 133.206,324.63 145,310.5C 147.739,306.218 151.073,305.552 155,308.5C 155.667,310.167 155.667,311.833 155,313.5C 143.981,325.685 133.147,338.018 122.5,350.5C 147.465,369.662 175.465,376.162 206.5,370C 219.6,366.466 232.6,362.633 245.5,358.5C 221.167,344.333 196.833,330.167 172.5,316C 159.042,304.921 150.875,290.754 148,273.5C 147.5,254.836 147.333,236.17 147.5,217.5 Z"/></g>
<g><path style="opacity:1" fill="#fcfdfc" d="M 187.5,250.5 C 208.949,263.063 230.616,275.396 252.5,287.5C 273.411,274.568 294.411,262.568 315.5,251.5C 294.468,281.523 273.468,311.523 252.5,341.5C 230.428,311.432 208.761,281.099 187.5,250.5 Z"/></g>
<g><path style="opacity:1" fill="#f6f9f7" d="M 109.5,261.5 C 118.611,261.207 127.611,262.041 136.5,264C 140.83,268.182 140.163,271.349 134.5,273.5C 125.307,271.45 115.973,270.95 106.5,272C 105.692,272.308 105.025,272.808 104.5,273.5C 114.693,285.548 122.026,299.214 126.5,314.5C 125.445,319.385 122.611,320.719 118,318.5C 112.171,298.848 101.671,282.182 86.5,268.5C 94.0854,265.524 101.752,263.191 109.5,261.5 Z"/></g>
<g><path style="opacity:1" fill="#f7faf8" d="M 376.5,261.5 C 390.856,260.62 404.523,263.12 417.5,269C 402.656,282.18 392.489,298.346 387,317.5C 384.333,320.167 381.667,320.167 379,317.5C 378.454,314.101 378.787,310.768 380,307.5C 385.013,295.005 391.846,283.672 400.5,273.5C 395.825,271.964 390.991,271.298 386,271.5C 379.737,271.59 373.571,272.09 367.5,273C 365.556,270.847 365.056,268.347 366,265.5C 369.428,263.855 372.928,262.522 376.5,261.5 Z"/></g>
</svg>
